# xmcd CD database file
#
# Track frame offsets:
#	150
#	16610
#	36770
#	54897
#	68172
#	77807
#	83757
#	101162
#	131935
#	160965
#
# Disc length: 2516 seconds
#
# Revision: 0
# Processed by: cddbd v1.5PL3 Copyright (c) Steve Scherf et al.
# Submitted via: CDex 1.50
#
DISCID=7709d20a
DTITLE=SION - Sion Elephant Song-Baidis Best Collection
DYEAR=1999
DGENRE=Rock
TTITLE0=Elephant Song
TTITLE1=一杯おくれ　（別ヴァージョン）
TTITLE2=どっかに行きたくなったら　（別ヴァージョン）
TTITLE3=なんてえらいオイラ　（別ヴァージョン）
TTITLE4=ゆうじ　（別ヴァージョン）
TTITLE5=かんばれがんばれ　（別ヴァージョン）
TTITLE6=ありがてぇ
TTITLE7=水のなかにいるようだ
TTITLE8=Sorry Baby
TTITLE9=ノスタルジア
EXTD=YEAR: 1999
EXTT0=
EXTT1=
EXTT2=
EXTT3=
EXTT4=
EXTT5=
EXTT6=
EXTT7=
EXTT8=
EXTT9=
PLAYORDER=
